<svg width="32" height="32" viewBox="0 0 32 32" fill="none" xmlns="http://www.w3.org/2000/svg">
<path d="M8.66634 26.6673C6.64412 26.6673 4.91634 25.9673 3.48301 24.5673C2.04967 23.1673 1.33301 21.4562 1.33301 19.434C1.33301 17.7007 1.85523 16.1562 2.89967 14.8007C3.94412 13.4451 5.31079 12.5784 6.99967 12.2007C7.55523 10.1562 8.66634 8.50065 10.333 7.23398C11.9997 5.96732 13.8886 5.33398 15.9997 5.33398C18.5997 5.33398 20.8052 6.23954 22.6163 8.05065C24.4275 9.86176 25.333 12.0673 25.333 14.6673C26.8663 14.8451 28.1386 15.5062 29.1497 16.6507C30.1608 17.7951 30.6663 19.134 30.6663 20.6673C30.6663 22.334 30.083 23.7507 28.9163 24.9173C27.7497 26.084 26.333 26.6673 24.6663 26.6673H17.333C16.5997 26.6673 15.9719 26.4062 15.4497 25.884C14.9275 25.3618 14.6663 24.734 14.6663 24.0007V17.134L12.533 19.2007L10.6663 17.334L15.9997 12.0007L21.333 17.334L19.4663 19.2007L17.333 17.134V24.0007H24.6663C25.5997 24.0007 26.3886 23.6784 27.033 23.034C27.6775 22.3895 27.9997 21.6007 27.9997 20.6673C27.9997 19.734 27.6775 18.9451 27.033 18.3007C26.3886 17.6562 25.5997 17.334 24.6663 17.334H22.6663V14.6673C22.6663 12.8229 22.0163 11.2507 20.7163 9.95065C19.4163 8.65065 17.8441 8.00065 15.9997 8.00065C14.1552 8.00065 12.583 8.65065 11.283 9.95065C9.98301 11.2507 9.33301 12.8229 9.33301 14.6673H8.66634C7.37745 14.6673 6.27745 15.1229 5.36634 16.034C4.45523 16.9451 3.99967 18.0451 3.99967 19.334C3.99967 20.6229 4.45523 21.7229 5.36634 22.634C6.27745 23.5451 7.37745 24.0007 8.66634 24.0007H11.9997V26.6673H8.66634Z" fill="#A3A8B8"/>
</svg>
